<svg width="115" height="74" viewBox="0 0 115 74" fill="none" xmlns="http://www.w3.org/2000/svg">
<path d="M4.89813 1.79129C4.50677 0.467206 3.11612 -0.288913 1.79204 0.102451C0.467955 0.493815 -0.288164 1.88446 0.1032 3.20854L2.50067 2.49992L4.89813 1.79129ZM31.501 43.9997L33.001 41.9997L31.501 43.9997ZM113.546 55.0495C114.407 53.9696 114.229 52.3967 113.149 51.5365L95.5501 37.5173C94.4701 36.657 92.8973 36.8351 92.037 37.915C91.1767 38.995 91.3548 40.5678 92.4347 41.4281L108.078 53.8896L95.6165 69.5328C94.7562 70.6128 94.9343 72.1856 96.0142 73.0459C97.0941 73.9062 98.667 73.7282 99.5273 72.6482L113.546 55.0495ZM2.50067 2.49992C0.1032 3.20854 0.103439 3.20935 0.103706 3.21026C0.103834 3.21069 0.104131 3.21169 0.104387 3.21255C0.104898 3.21427 0.105526 3.21638 0.10627 3.21888C0.107758 3.22387 0.109712 3.2304 0.112134 3.23846C0.11698 3.25457 0.123702 3.27677 0.132325 3.30494C0.14957 3.36128 0.174424 3.44148 0.207087 3.54449C0.272409 3.75049 0.368992 4.04777 0.498452 4.42782C0.757329 5.18781 1.14794 6.27959 1.68328 7.63501C2.75336 10.3443 4.40509 14.1157 6.74381 18.4005C11.4112 26.952 18.8712 37.6523 30.001 45.9997L31.501 43.9997L33.001 41.9997C22.6305 34.2218 15.5903 24.1722 11.1326 16.0051C8.9088 11.9307 7.34176 8.35058 6.3337 5.79827C5.82996 4.52287 5.46667 3.50629 5.2314 2.81562C5.11379 2.47035 5.02824 2.20673 4.9732 2.03315C4.94568 1.94637 4.9258 1.88213 4.91335 1.84146C4.90713 1.82113 4.90276 1.80669 4.90024 1.79828C4.89897 1.79408 4.89817 1.79139 4.89782 1.79022C4.89764 1.78963 4.89758 1.78943 4.89763 1.7896C4.89766 1.78969 4.89779 1.79011 4.8978 1.79016C4.89795 1.79068 4.89813 1.79129 2.50067 2.49992ZM31.501 43.9997L30.001 45.9997C35.8237 50.3667 43.9547 53.0674 52.6112 54.7402C61.3173 56.4227 70.8104 57.1119 79.5571 57.2922C88.3138 57.4727 96.3824 57.1442 102.259 56.7713C105.199 56.5847 107.594 56.3868 109.258 56.2351C110.091 56.1592 110.74 56.0949 111.183 56.0493C111.405 56.0265 111.575 56.0084 111.691 55.9959C111.749 55.9896 111.793 55.9848 111.824 55.9814C111.839 55.9797 111.85 55.9784 111.859 55.9775C111.863 55.9771 111.866 55.9767 111.868 55.9765C111.869 55.9763 111.87 55.9762 111.871 55.9762C111.872 55.9761 111.872 55.976 111.591 53.4919C111.31 51.0077 111.31 51.0077 111.31 51.0077C111.31 51.0078 111.309 51.0078 111.309 51.0079C111.307 51.008 111.305 51.0082 111.302 51.0086C111.296 51.0093 111.287 51.0103 111.273 51.0118C111.247 51.0147 111.207 51.0191 111.154 51.0249C111.046 51.0365 110.885 51.0537 110.672 51.0755C110.247 51.1192 109.617 51.1817 108.805 51.2557C107.18 51.4038 104.831 51.598 101.942 51.7813C96.161 52.1482 88.2385 52.4701 79.6602 52.2933C71.0719 52.1162 61.8863 51.4401 53.5599 49.8311C45.1839 48.2124 37.9284 45.6952 33.001 41.9997L31.501 43.9997Z" fill="#DAE0EE"/>
</svg>
