<svg width="20" height="20" viewBox="0 0 20 20" fill="none" xmlns="http://www.w3.org/2000/svg">
<g clip-path="url(#clip0_443_1544)">
<rect width="20" height="20" fill="#A0ADCB"/>
<path d="M0 10C0 4.47717 4.47717 0 10 0C15.5228 0 20 4.47717 20 10C20 15.5228 15.5228 20 10 20C4.47717 20 0 15.5228 0 10Z" fill="#B8C3DC"/>
<path fill-rule="evenodd" clip-rule="evenodd" d="M9.8625 8.35139C9.8625 7.96593 9.76155 7.63556 9.56021 7.35897C9.22467 6.90856 8.65584 6.67777 7.85184 6.66602H4.6665V13.1687H7.63671C7.97163 13.1687 8.28142 13.1403 8.56805 13.0815C8.85467 13.0221 9.10238 12.9138 9.3125 12.7548C9.49938 12.6162 9.65492 12.4454 9.77909 12.2431C9.97538 11.9375 10.0732 11.5916 10.0732 11.2061C10.0732 10.8324 9.9873 10.5144 9.81671 10.2533C9.64425 9.9916 9.39088 9.80043 9.05471 9.67918C9.27613 9.56781 9.44355 9.44406 9.55771 9.30918C9.76155 9.06789 9.8625 8.74802 9.8625 8.35139ZM14.3072 7.77847H11.4825V6.96918H14.3072V7.77847ZM11.8117 10.2886C11.8581 9.97552 11.9716 9.72743 12.1516 9.54427C12.3316 9.36114 12.5863 9.26956 12.9124 9.26956C13.2134 9.26956 13.4649 9.35556 13.6693 9.52818C13.8713 9.70206 13.9854 9.95447 14.0086 10.2886H11.8117ZM14.0582 8.45781C14.3988 8.60756 14.6791 8.84514 14.8998 9.16935C15.1012 9.45518 15.2303 9.78681 15.2893 10.1636C15.3238 10.3839 15.3376 10.7031 15.332 11.1183H11.7803C11.8017 11.6003 11.9698 11.9387 12.2908 12.1324C12.4853 12.253 12.7192 12.3136 12.9939 12.3136C13.283 12.3136 13.5195 12.24 13.7007 12.0934C13.8004 12.0136 13.8882 11.9034 13.9635 11.7624H15.2648C15.2303 12.047 15.0723 12.3372 14.7926 12.6317C14.3561 13.0988 13.7446 13.3327 12.9588 13.3327C12.3097 13.3327 11.7371 13.1359 11.2423 12.7412C10.7449 12.3471 10.4978 11.7048 10.4978 10.8163C10.4978 9.98293 10.7217 9.34381 11.1689 8.89897C11.6173 8.45535 12.1974 8.23197 12.9118 8.23197C13.3363 8.23197 13.7183 8.30747 14.0582 8.45781ZM5.98038 12.0402V10.3059H7.60346C7.88571 10.3084 8.10584 10.3455 8.26263 10.4161C8.54296 10.5429 8.68221 10.7749 8.68221 11.114C8.68221 11.5136 8.53796 11.7834 8.24884 11.9257C8.09017 12.0018 7.86688 12.0402 7.58092 12.0402H5.98038ZM5.98038 7.79518V9.22997H7.58342C7.86875 9.22997 8.10146 9.17614 8.2808 9.06847C8.45892 8.96085 8.54859 8.77027 8.54859 8.49802C8.54859 8.19422 8.43071 7.99439 8.19488 7.89664C7.99042 7.82918 7.7308 7.79518 7.41534 7.79518H5.98038Z" fill="#A0ADCB"/>
</g>
<defs>
<clipPath id="clip0_443_1544">
<rect width="20" height="20" fill="white"/>
</clipPath>
</defs>
</svg>
