<svg width="20" height="20" viewBox="0 0 20 20" fill="none" xmlns="http://www.w3.org/2000/svg">
<g clip-path="url(#clip0_443_1547)">
<mask id="mask0_443_1547" style="mask-type:luminance" maskUnits="userSpaceOnUse" x="0" y="0" width="20" height="20">
<path d="M20 0H0V20H20V0Z" fill="white"/>
</mask>
<g mask="url(#mask0_443_1547)">
<path fill-rule="evenodd" clip-rule="evenodd" d="M10.0083 0C4.47396 0 0 4.50696 0 10.0826C0 14.5396 2.86662 18.3123 6.84338 19.6476C7.34058 19.748 7.52271 19.4306 7.52271 19.1637C7.52271 18.93 7.50629 18.1287 7.50629 17.294C4.72225 17.895 4.14249 16.092 4.14249 16.092C3.69508 14.9235 3.03215 14.6232 3.03215 14.6232C2.12093 14.0055 3.09852 14.0055 3.09852 14.0055C4.1093 14.0723 4.63971 15.0405 4.63971 15.0405C5.53433 16.5761 6.97592 16.1422 7.55588 15.8751C7.63867 15.224 7.90396 14.7733 8.18563 14.523C5.96513 14.2893 3.6289 13.4212 3.6289 9.54837C3.6289 8.44662 4.02634 7.54525 4.65608 6.84421C4.55671 6.59387 4.20867 5.55871 4.75563 4.17321C4.75563 4.17321 5.60071 3.90608 7.50608 5.20817C8.32188 4.98746 9.16317 4.87521 10.0083 4.87425C10.8533 4.87425 11.7148 4.99125 12.5103 5.20817C14.4159 3.90608 15.2609 4.17321 15.2609 4.17321C15.8079 5.55871 15.4596 6.59387 15.3603 6.84421C16.0066 7.54525 16.3876 8.44662 16.3876 9.54837C16.3876 13.4212 14.0514 14.2725 11.8143 14.523C12.179 14.8401 12.4937 15.441 12.4937 16.3925C12.4937 17.7446 12.4773 18.8298 12.4773 19.1635C12.4773 19.4306 12.6596 19.748 13.1566 19.6478C17.1333 18.3121 20 14.5396 20 10.0826C20.0163 4.50696 15.526 0 10.0083 0Z" fill="#B8C3DC"/>
</g>
</g>
<defs>
<clipPath id="clip0_443_1547">
<rect width="20" height="20" fill="white"/>
</clipPath>
</defs>
</svg>
