<svg width="1280" height="471" viewBox="0 0 1280 471" fill="none" xmlns="http://www.w3.org/2000/svg">
<line x1="98.5" y1="-2.18557e-08" x2="98.5" y2="471" stroke="#333333"/>
<line x1="198.5" y1="-2.18557e-08" x2="198.5" y2="471" stroke="#333333"/>
<line x1="298.5" y1="-2.18557e-08" x2="298.5" y2="471" stroke="#333333"/>
<line x1="398.5" y1="-2.18557e-08" x2="398.5" y2="471" stroke="#333333"/>
<line x1="498.5" y1="-2.18557e-08" x2="498.5" y2="471" stroke="#333333"/>
<line x1="598.5" y1="-2.18557e-08" x2="598.5" y2="471" stroke="#333333"/>
<line x1="698.5" y1="-2.18557e-08" x2="698.5" y2="471" stroke="#333333"/>
<line x1="798.5" y1="-2.18557e-08" x2="798.5" y2="471" stroke="#333333"/>
<line x1="898.5" y1="-2.18557e-08" x2="898.5" y2="471" stroke="#333333"/>
<line x1="998.5" y1="-2.18557e-08" x2="998.5" y2="471" stroke="#333333"/>
<line x1="1098.5" y1="-2.18557e-08" x2="1098.5" y2="471" stroke="#333333"/>
<line x1="1198.5" y1="-2.18557e-08" x2="1198.5" y2="471" stroke="#333333"/>
<line x1="1.31134e-07" y1="399.5" x2="1280" y2="399.5" stroke="#333333"/>
<line x1="3.0598e-07" y1="327.5" x2="1280" y2="327.501" stroke="#333333"/>
<line x1="3.0598e-07" y1="255.5" x2="1280" y2="255.501" stroke="#333333"/>
<line x1="3.0598e-07" y1="183.5" x2="1280" y2="183.501" stroke="#333333"/>
<line x1="3.0598e-07" y1="111.5" x2="1280" y2="111.501" stroke="#333333"/>
<line x1="3.0598e-07" y1="39.5" x2="1280" y2="39.5008" stroke="#333333"/>
</svg>
