<svg width="19" height="20" viewBox="0 0 19 20" fill="none" xmlns="http://www.w3.org/2000/svg">
<path d="M9.49745 6.66525C7.75305 6.66525 6.32949 8.16376 6.32949 10C6.32949 11.8362 7.75305 13.3348 9.49745 13.3348C11.2418 13.3348 12.6654 11.8362 12.6654 10C12.6654 8.16376 11.2418 6.66525 9.49745 6.66525ZM18.9989 10C18.9989 8.61907 19.0108 7.25064 18.9371 5.87221C18.8635 4.27113 18.5165 2.85017 17.4043 1.67938C16.2897 0.506085 14.9421 0.14334 13.4211 0.065788C12.1093 -0.0117644 10.8093 0.000744113 9.49982 0.000744113C8.18796 0.000744113 6.88798 -0.0117644 5.5785 0.065788C4.0575 0.14334 2.70761 0.508587 1.59538 1.67938C0.480772 2.85267 0.136171 4.27113 0.0624975 5.87221C-0.0111759 7.25314 0.000706894 8.62157 0.000706894 10C0.000706894 11.3784 -0.0111759 12.7494 0.0624975 14.1278C0.136171 15.7289 0.483149 17.1498 1.59538 18.3206C2.70999 19.4939 4.0575 19.8567 5.5785 19.9342C6.89036 20.0118 8.19034 19.9993 9.49982 19.9993C10.8117 19.9993 12.1117 20.0118 13.4211 19.9342C14.9421 19.8567 16.292 19.4914 17.4043 18.3206C18.5189 17.1473 18.8635 15.7289 18.9371 14.1278C19.0132 12.7494 18.9989 11.3809 18.9989 10ZM9.49745 15.131C6.80005 15.131 4.62312 12.8394 4.62312 10C4.62312 7.16058 6.80005 4.86903 9.49745 4.86903C12.1948 4.86903 14.3718 7.16058 14.3718 10C14.3718 12.8394 12.1948 15.131 9.49745 15.131ZM14.5714 5.8572C13.9416 5.8572 13.433 5.32184 13.433 4.65889C13.433 3.99594 13.9416 3.46058 14.5714 3.46058C15.2012 3.46058 15.7098 3.99594 15.7098 4.65889C15.71 4.81631 15.6806 4.97222 15.6235 5.1177C15.5664 5.26317 15.4825 5.39535 15.3768 5.50666C15.271 5.61798 15.1455 5.70624 15.0073 5.76639C14.8691 5.82654 14.721 5.8574 14.5714 5.8572Z" fill="#B8C3DC"/>
</svg>
