<svg width="27" height="20" viewBox="0 0 27 20" fill="none" xmlns="http://www.w3.org/2000/svg">
<path d="M26.3034 4.20883C26.3034 3.40525 26.3296 2.59542 26.308 1.79102C26.0437 2.04651 25.7799 2.30201 25.5156 2.55709C25.2531 2.81133 24.9905 3.06474 24.7283 3.31815C23.4896 4.51607 22.2509 5.71345 21.0122 6.91051C19.553 8.32183 18.0934 9.73218 16.6342 11.1435C16.0957 11.6641 15.5567 12.1851 15.0182 12.7057C14.8682 12.8511 14.7223 13.0012 14.561 13.1341C13.8283 13.7385 12.7587 13.8477 11.9556 13.2984C11.4155 12.9287 10.9607 12.3914 10.4931 11.9392C10.1376 11.5958 9.78245 11.2519 9.42734 10.9089C7.76059 9.29722 6.09383 7.68627 4.42708 6.0749C3.47637 5.15628 2.52612 4.23764 1.57618 3.31821C1.3136 3.0648 1.05101 2.81055 0.788851 2.55714C0.526274 2.3029 0.263272 2.04949 0.000694682 1.79524C0.000694682 1.85568 0.00111148 1.91528 0.00111148 1.9753V18.1798C0.00111148 18.246 -0.00138935 18.3119 0.00111148 18.3781C0.0327884 19.2447 0.655063 19.8995 1.49864 19.9903H1.49906C1.53782 19.9965 1.57825 19.9999 1.61909 19.9999C1.63451 20.0003 1.6491 20.0003 1.66369 19.9999H23.7612C24.0446 19.9999 24.3288 20.0015 24.6127 19.9999C25.5571 19.9932 26.2777 19.3021 26.3032 18.3526C26.3291 17.3865 26.3032 16.4166 26.3032 15.4505L26.3034 4.20883Z" fill="#B8C3DC"/>
<path d="M1.98846 0H24.5447C24.7265 0 24.9024 0.0237582 25.067 0.0683544C24.8186 0.308428 24.571 0.548088 24.3226 0.787746C24.0512 1.05032 23.7799 1.31291 23.5082 1.57507C22.5066 2.54328 21.5051 3.51145 20.5031 4.47975C18.8038 6.12271 17.1042 7.7662 15.4049 9.40916C14.6721 10.1173 13.9181 10.8087 13.2046 11.5357C13.198 11.5398 13.1884 11.5457 13.1775 11.554C13.1717 11.5557 13.165 11.5578 13.1575 11.5599H13.1434C13.1358 11.5578 13.1296 11.5557 13.1238 11.554C13.1117 11.5457 13.1021 11.5394 13.0954 11.5353C12.94 11.379 12.7774 11.2281 12.6186 11.0747C12.0934 10.5675 11.5691 10.0598 11.0444 9.55296C9.58385 8.1409 8.12346 6.72873 6.66263 5.3171C5.37264 4.06967 4.08221 2.82257 2.79232 1.57514C2.52099 1.31257 2.24966 1.04998 1.97749 0.787821C1.72616 0.544834 1.47526 0.301834 1.22351 0.059263C1.47192 0.0017456 1.72325 7.81491e-05 1.98833 7.81491e-05L1.98846 0Z" fill="#B8C3DC"/>
</svg>
