<svg width="20" height="20" viewBox="0 0 20 20" fill="none" xmlns="http://www.w3.org/2000/svg">
<path d="M18.2273 13.72C17.4373 12.8876 15.1548 11.0637 13.7332 12.6473C12.3114 14.2308 11.7313 15.9453 11.7313 15.9453C10.4632 15.2489 7.53612 12.1636 7.53612 12.1636C7.53612 12.1636 4.60853 9.07834 4.01781 7.81625C4.01781 7.81625 5.89933 7.47299 7.73904 6.33012C9.5792 5.18702 7.91163 2.84871 7.12214 2.0163C6.33219 1.18389 4.21805 -1.04437 2.55657 0.575457C2.55657 0.575457 -1.34314 3.9114 0.490179 7.29676C2.323 10.6821 4.59181 12.9565 5.47457 13.8869C6.35733 14.8174 8.50299 17.1946 11.8743 19.2939C15.2458 21.3933 19.2261 18.1424 19.2261 18.1424C21.1313 16.7806 19.017 14.5523 18.2272 13.7198L18.2273 13.72Z" fill="#B8C3DC"/>
</svg>
