<svg width="556" height="610" viewBox="0 0 556 610" fill="none" xmlns="http://www.w3.org/2000/svg">
<path fill-rule="evenodd" clip-rule="evenodd" d="M433.205 475.612C429.553 471.954 424.329 466.898 417.523 460.442C410.722 453.988 404.566 448.076 399.06 442.696C393.552 437.321 388.412 432.167 383.642 427.233C382.913 426.309 380.607 423.555 376.716 418.977C373.602 415.204 370.212 411.669 366.572 408.398C363.964 406.064 360.855 404.355 357.491 403.406C352.942 402.188 346.389 403.903 337.83 408.558L337.825 408.556C329.239 413.231 321.068 418.622 313.398 424.681C305.859 430.648 297.922 436.093 289.646 440.986C281.539 445.762 275.444 447.6 271.349 446.503C268.748 445.674 266.304 444.402 264.131 442.744C261.981 441.26 259.907 439.665 257.913 437.97C256.537 436.747 254.231 434.425 251.007 431.002C247.778 427.578 245.968 425.69 245.576 425.342L245.577 425.337C220.488 401.521 198.858 374.311 181.312 344.498C164.265 314.396 151.516 282.058 143.436 248.423C143.331 247.91 142.6 245.398 141.25 240.889C139.899 236.381 139.04 233.228 138.668 231.424C138.191 228.854 137.851 226.262 137.638 223.651C137.293 220.942 137.407 218.192 137.991 215.521C139.089 211.426 143.728 207.066 151.917 202.434C160.294 197.714 168.976 193.567 177.913 190.021C186.996 186.404 195.756 182.024 204.092 176.924C212.403 171.839 217.165 167.021 218.384 162.473C219.245 159.08 219.32 155.533 218.603 152.107C217.589 147.325 216.223 142.617 214.513 138.033C212.494 132.374 211.268 128.997 210.828 127.903C208.94 121.303 207.046 114.275 205.145 106.818C203.244 99.3611 201.197 91.0726 199.008 81.9557C196.819 72.8382 195.054 65.7817 193.711 60.7895C190.017 42.7377 186.303 32.4787 182.578 30.0193L182.577 30.0242C180.487 28.6096 178.147 27.6135 175.684 27.08C167.496 25.1709 159.127 24.1524 150.719 24.0468C142.281 23.5847 133.817 23.8861 125.434 24.9478C112.784 26.6758 97.011 37.3219 78.1185 56.8755L78.1172 56.8804C57.1469 77.5506 43.7622 104.685 40.1129 133.899C39.3109 140.791 38.9828 147.725 39.1247 154.658C39.223 162.481 39.425 168.324 39.7299 172.187C40.0358 176.046 40.6782 182.982 41.6521 192.992C42.626 203.002 43.1803 209.124 43.3159 211.355L43.3097 211.358C44.9964 234.164 49.1293 256.723 55.6272 278.643C67.791 317.065 84.3489 353.952 104.969 388.578C124.646 423.748 148.314 456.527 175.501 486.27C191.239 502.864 208.711 517.717 227.617 530.581C229.482 531.814 234.506 535.35 242.688 541.203C250.871 547.052 256.558 551.071 259.75 553.272C262.939 555.467 267.902 558.564 274.628 562.561L274.624 562.554C280.557 566.149 286.732 569.328 293.096 572.078C320.221 583.525 350.417 585.501 378.803 577.676C405.183 571.097 422.289 562.759 430.11 552.668C435.222 545.935 439.715 538.755 443.534 531.216C447.646 523.882 450.949 516.125 453.39 508.08C454.159 505.68 454.466 503.156 454.285 500.643C454.019 496.183 446.994 487.844 433.205 475.612Z" fill="#B8C3DC" fill-opacity="0.5"/>
</svg>
