<svg width="20" height="14" viewBox="0 0 20 14" fill="none" xmlns="http://www.w3.org/2000/svg">
<path d="M16.6152 0H3.38451C2.48681 0 1.62605 0.360614 0.991206 1.00247C0.356358 1.64413 0 2.51463 0 3.42213V10.5779C0 11.4853 0.356413 12.3559 0.991206 12.9978C1.62605 13.6394 2.48675 14 3.38451 14H16.6152C17.5129 14 18.3739 13.6394 19.0086 12.9978C19.6434 12.3559 20 11.4854 20 10.5779V3.42213C20 2.5147 19.6433 1.64413 19.0086 1.00247C18.3739 0.360564 17.513 0 16.6152 0ZM10.846 8.55564L7.8461 10.1112V3.88916L13.846 7.00037L10.846 8.55564Z" fill="#B8C3DC"/>
</svg>
